<?xml version="1.0" encoding="utf-8"?>
<!-- Generator: Adobe Illustrator 15.0.2, SVG Export Plug-In . SVG Version: 6.00 Build 0)  -->
<!DOCTYPE svg PUBLIC "-//W3C//DTD SVG 1.1//EN" "http://www.w3.org/Graphics/SVG/1.1/DTD/svg11.dtd">
<svg version="1.1" id="Layer_1" xmlns="http://www.w3.org/2000/svg" xmlns:xlink="http://www.w3.org/1999/xlink" x="0px" y="0px"
	 width="426px" height="80.5px" viewBox="0 0 426 80.5" enable-background="new 0 0 426 80.5" xml:space="preserve">
<g>
	<path d="M131.489,57.473c-1.469,2.797-3.914,4.195-7.336,4.195c-3.391,0-6.262-1.176-8.613-3.527s-3.527-5.129-3.527-8.332
		c0-3.234,1.176-6.02,3.527-8.355s5.223-3.504,8.613-3.504c3.406,0,5.953,1.414,7.641,4.242v-2.508h4.242v16.125
		c0,3.141-1.133,5.836-3.398,8.086c-2.375,2.391-5.266,3.586-8.672,3.586s-6.273-1.164-8.602-3.492
		c-0.531-0.547-1.203-1.359-2.016-2.438l4.055-1.477c0.547,0.688,0.93,1.125,1.148,1.312c1.516,1.531,3.32,2.297,5.414,2.297
		C128.388,63.684,130.896,61.613,131.489,57.473z M131.771,48.004c-0.312-1.516-1.047-2.859-2.203-4.031
		c-1.516-1.531-3.32-2.297-5.414-2.297c-2.109,0-3.938,0.781-5.484,2.344s-2.32,3.492-2.32,5.789c0,2.281,0.773,4.199,2.32,5.754
		s3.375,2.332,5.484,2.332c2.094,0,3.93-0.789,5.508-2.367c1.094-1.094,1.797-2.391,2.109-3.891V48.004z"/>
	<path d="M163.481,61.105h-4.242v-3.75c-1.672,2.875-4.219,4.312-7.641,4.312c-3.391,0-6.262-1.176-8.613-3.527
		s-3.527-5.129-3.527-8.332c0-3.234,1.176-6.023,3.527-8.367s5.223-3.516,8.613-3.516c3.422,0,5.969,1.422,7.641,4.266v-2.508h4.242
		V61.105z M159.239,51.496v-3.422c-0.297-1.547-1.008-2.883-2.133-4.008c-1.578-1.594-3.414-2.391-5.508-2.391
		c-2.109,0-3.938,0.781-5.484,2.344s-2.32,3.492-2.32,5.789c0,2.281,0.773,4.195,2.32,5.742s3.375,2.32,5.484,2.32
		c2.094,0,3.93-0.789,5.508-2.367C158.231,54.379,158.942,53.043,159.239,51.496z"/>
	<path d="M177.708,42.871c-1.938,0.297-3.438,1.066-4.5,2.309s-1.594,2.801-1.594,4.676v11.25h-4.242V39.684h4.242v3.047
		c0.625-1.672,1.969-2.836,4.031-3.492L177.708,42.871z"/>
	<path d="M204.685,61.105h-4.242v-3.75c-1.672,2.875-4.219,4.312-7.641,4.312c-3.391,0-6.262-1.176-8.613-3.527
		s-3.527-5.129-3.527-8.332c0-3.234,1.176-6.023,3.527-8.367s5.223-3.516,8.613-3.516c3.422,0,5.969,1.422,7.641,4.266V27.379h4.242
		V61.105z M200.442,51.496v-3.422c-0.297-1.547-1.008-2.883-2.133-4.008c-1.578-1.594-3.414-2.391-5.508-2.391
		c-2.109,0-3.938,0.781-5.484,2.344s-2.32,3.492-2.32,5.789c0,2.281,0.773,4.195,2.32,5.742s3.375,2.32,5.484,2.32
		c2.094,0,3.93-0.789,5.508-2.367C199.435,54.379,200.146,53.043,200.442,51.496z"/>
	<path d="M212.325,49.738v0.07c0,2.281,0.773,4.195,2.32,5.742s3.375,2.32,5.484,2.32c2.094,0,3.93-0.789,5.508-2.367
		c0.219-0.219,0.641-0.711,1.266-1.477l3.984,1.406c-0.594,1-1.281,1.883-2.062,2.648c-2.375,2.391-5.273,3.586-8.695,3.586
		c-3.391,0-6.262-1.176-8.613-3.527s-3.527-5.129-3.527-8.332c0-3.234,1.176-6.023,3.527-8.367s5.223-3.516,8.613-3.516
		c3.422,0,6.32,1.188,8.695,3.562c2.047,2.062,3.07,4.812,3.07,8.25H212.325z M213.075,46.035h14.039
		c-1-2.906-3.328-4.359-6.984-4.359C216.458,41.676,214.106,43.129,213.075,46.035z"/>
	<path d="M239.302,45.121v15.984h-4.242V39.684h4.242c0.719-0.781,2.203-1.172,4.453-1.172c2.703,0,4.883,0.828,6.539,2.484
		s2.5,3.68,2.531,6.07v14.039h-4.219V47.254c0-1.453-0.492-2.66-1.477-3.621s-2.109-1.441-3.375-1.441
		c-1.25,0-2.352,0.453-3.305,1.359C239.903,44.098,239.521,44.621,239.302,45.121z"/>
	<path d="M280.88,37.926c3.422,0,6.297,1.172,8.625,3.516s3.492,5.133,3.492,8.367c0,3.203-1.164,5.98-3.492,8.332
		s-5.203,3.527-8.625,3.527c-3.391,0-6.262-1.176-8.613-3.527s-3.527-5.129-3.527-8.332c0-3.234,1.176-6.023,3.527-8.367
		S277.489,37.926,280.88,37.926z M275.396,44.02c-1.547,1.562-2.32,3.492-2.32,5.789c0,2.281,0.773,4.195,2.32,5.742
		s3.375,2.32,5.484,2.32c2.094,0,3.918-0.773,5.473-2.32s2.332-3.461,2.332-5.742c0-2.297-0.777-4.227-2.332-5.789
		s-3.379-2.344-5.473-2.344C278.771,41.676,276.942,42.457,275.396,44.02z"/>
	<path d="M301.411,43.34v17.766h-4.242V43.34H295.2v-3.656h1.969v-4.383c0.109-1.672,0.766-3.125,1.969-4.359
		c1.359-1.25,2.93-1.875,4.711-1.875c1.375,0,2.641,0.281,3.797,0.844l-1.242,3.516c-0.953-0.547-1.75-0.82-2.391-0.82
		c-0.562,0-1.133,0.258-1.711,0.773c-0.547,0.562-0.844,1.258-0.891,2.086v4.219h3.984v3.656H301.411z"/>
	<path d="M337.763,54.262l4.031,1.477c-0.797,1.078-1.43,1.859-1.898,2.344c-2.375,2.391-5.273,3.586-8.695,3.586
		c-3.391,0-6.262-1.176-8.613-3.527s-3.527-5.137-3.527-8.355s1.176-6,3.527-8.344s5.223-3.516,8.613-3.516
		c3.422,0,6.289,1.156,8.602,3.469c0.531,0.531,1.195,1.336,1.992,2.414l-4.031,1.5c-0.562-0.703-0.945-1.164-1.148-1.383
		c-1.516-1.5-3.32-2.25-5.414-2.25s-3.914,0.777-5.461,2.332s-2.32,3.48-2.32,5.777c0,2.281,0.773,4.199,2.32,5.754
		s3.367,2.332,5.461,2.332s3.93-0.789,5.508-2.367C336.849,55.363,337.2,54.949,337.763,54.262z"/>
	<path d="M356.841,37.926c3.422,0,6.297,1.172,8.625,3.516s3.492,5.133,3.492,8.367c0,3.203-1.164,5.98-3.492,8.332
		s-5.203,3.527-8.625,3.527c-3.391,0-6.262-1.176-8.613-3.527s-3.527-5.129-3.527-8.332c0-3.234,1.176-6.023,3.527-8.367
		S353.45,37.926,356.841,37.926z M351.356,44.02c-1.547,1.562-2.32,3.492-2.32,5.789c0,2.281,0.773,4.195,2.32,5.742
		s3.375,2.32,5.484,2.32c2.094,0,3.918-0.773,5.473-2.32s2.332-3.461,2.332-5.742c0-2.297-0.777-4.227-2.332-5.789
		s-3.379-2.344-5.473-2.344C354.731,41.676,352.903,42.457,351.356,44.02z"/>
	<path d="M396.403,61.105h-4.242v-3.75c-1.672,2.875-4.219,4.312-7.641,4.312c-3.391,0-6.262-1.176-8.613-3.527
		s-3.527-5.129-3.527-8.332c0-3.234,1.176-6.023,3.527-8.367s5.223-3.516,8.613-3.516c3.422,0,5.969,1.422,7.641,4.266V27.379h4.242
		V61.105z M392.161,51.496v-3.422c-0.297-1.547-1.008-2.883-2.133-4.008c-1.578-1.594-3.414-2.391-5.508-2.391
		c-2.109,0-3.938,0.781-5.484,2.344s-2.32,3.492-2.32,5.789c0,2.281,0.773,4.195,2.32,5.742s3.375,2.32,5.484,2.32
		c2.094,0,3.93-0.789,5.508-2.367C391.153,54.379,391.864,53.043,392.161,51.496z"/>
	<path d="M404.044,49.738v0.07c0,2.281,0.773,4.195,2.32,5.742s3.375,2.32,5.484,2.32c2.094,0,3.93-0.789,5.508-2.367
		c0.219-0.219,0.641-0.711,1.266-1.477l3.984,1.406c-0.594,1-1.281,1.883-2.062,2.648c-2.375,2.391-5.273,3.586-8.695,3.586
		c-3.391,0-6.262-1.176-8.613-3.527s-3.527-5.129-3.527-8.332c0-3.234,1.176-6.023,3.527-8.367s5.223-3.516,8.613-3.516
		c3.422,0,6.32,1.188,8.695,3.562c2.047,2.062,3.07,4.812,3.07,8.25H404.044z M404.794,46.035h14.039
		c-1-2.906-3.328-4.359-6.984-4.359C408.177,41.676,405.825,43.129,404.794,46.035z"/>
</g>
<g>
	<g>
		<path d="M82.449,65.9c-0.543-0.305-0.982-0.626-1.321-0.965c-0.339-0.406-0.677-0.863-1.016-1.371
			c-0.339-0.508-0.406-0.863-0.203-1.066l10.868-10.869c0.609-0.609,0.609-1.218,0-1.828l-5.586-5.586
			c-1.559-1.557-3.285-3.317-5.18-5.282c-0.271-0.27-0.289-0.609-0.051-1.016c0.237-0.406,0.625-0.879,1.168-1.422
			c0.542-0.473,1.032-0.846,1.473-1.117c0.439-0.27,0.762-0.305,0.965-0.102l11.985,12.086c1.15,1.152,1.709,2.27,1.676,3.352
			c-0.035,1.083-0.593,2.201-1.676,3.352L83.566,66.053C83.363,66.256,82.99,66.205,82.449,65.9z"/>
	</g>
	<g>
		<path d="M15.647,35.276c0.203-0.203,0.559-0.152,1.066,0.152s0.965,0.66,1.371,1.066c0.338,0.339,0.676,0.762,1.016,1.27
			c0.338,0.508,0.406,0.863,0.203,1.066L8.436,49.699c-0.678,0.678-0.678,1.32,0,1.93l10.766,10.766c0.27,0.271,0.27,0.609,0,1.016
			c-0.271,0.406-0.644,0.881-1.117,1.422c-0.542,0.543-1.033,0.932-1.473,1.168c-0.441,0.238-0.762,0.254-0.965,0.051L3.662,54.066
			c-2.235-2.301-2.235-4.571,0-6.805c0.135-0.135,0.828-0.812,2.082-2.031c1.252-1.219,2.623-2.573,4.113-4.063
			C11.618,39.407,13.547,37.444,15.647,35.276z"/>
	</g>
	<g>
		<g>
			<path fill="#FDB841" d="M75.089,76.568l-25.58-25.58l5.215-5.211l25.579,25.578c1.438,1.441,1.438,3.773,0,5.213
				C78.864,78.008,76.53,78.008,75.089,76.568"/>
			<path fill="#FFCF7E" d="M54.527,44.143c0.743,0.746,0.743,1.949,0,2.693l-3.959,3.959c-0.744,0.738-1.945,0.738-2.688,0
				c-0.743-0.744-0.743-1.947,0-2.691l3.958-3.961C52.58,43.402,53.786,43.402,54.527,44.143"/>
			<path fill="#4E4E4E" d="M37.401,29.707l5.623-5.625c1.521-1.52-0.424-5.158-9.386-10.904c-8.963-5.752-19.269-2.545-19.269-2.545
				s-3.206,10.309,2.541,19.273c5.751,8.961,9.386,10.902,10.909,9.381l5.625-5.621L47.88,48.104l3.958-3.961L37.401,29.707z"/>
		</g>
		<g>
			<path fill="#FDB841" d="M22.668,76.686L45.48,53.877l-4.649-4.65l-22.81,22.811c-1.283,1.285-1.283,3.365,0,4.648
				C19.305,77.971,21.386,77.971,22.668,76.686"/>
			<path fill="#FFCF7E" d="M41.004,47.775c-0.661,0.66-0.661,1.734,0,2.398l3.53,3.529c0.664,0.662,1.736,0.662,2.396,0
				c0.665-0.662,0.665-1.736,0-2.398l-3.527-3.529C42.74,47.111,41.666,47.111,41.004,47.775"/>
			<path fill="#4E4E4E" d="M58.847,32.242C80.84,12.257,81.791,7.582,81.791,7.582s-4.674,0.951-24.658,22.945
				c-0.541,0.594-1.468,0.617-2.037,0.051l-1.634-1.637c-0.57-0.566-0.544-1.496,0.051-2.039
				C75.503,6.922,76.456,2.246,76.456,2.246s-4.831,0.982-25.651,24.039l-0.433,0.432c-0.627,0.631-0.627,1.65,0,2.277l5.906,5.906
				L43.401,47.775l3.53,3.529l12.877-12.877l5.904,5.908c0.63,0.627,1.646,0.627,2.276-0.002l0.43-0.432
				c23.06-20.82,24.043-25.65,24.043-25.65s-4.674,0.953-24.658,22.945c-0.54,0.594-1.469,0.617-2.039,0.051l-1.632-1.635
				c-0.569-0.568-0.548-1.5,0.05-2.039c21.992-19.982,22.944-24.656,22.944-24.656s-4.677,0.951-24.658,22.943
				c-0.54,0.596-1.473,0.619-2.04,0.049l-1.635-1.629C58.227,33.709,58.252,32.781,58.847,32.242"/>
		</g>
	</g>
</g>
</svg>
