<?xml version="1.0" encoding="utf-8"?>
<!-- Generator: Adobe Illustrator 15.0.2, SVG Export Plug-In . SVG Version: 6.00 Build 0)  -->
<!DOCTYPE svg PUBLIC "-//W3C//DTD SVG 1.1//EN" "http://www.w3.org/Graphics/SVG/1.1/DTD/svg11.dtd">
<svg version="1.1" id="Layer_1" xmlns="http://www.w3.org/2000/svg" xmlns:xlink="http://www.w3.org/1999/xlink" x="0px" y="0px"
	 width="395px" height="84px" viewBox="0 0 395 84" enable-background="new 0 0 395 84" xml:space="preserve">
<g>
	<path d="M131.987,45.333v-2.448c0-2.088-1.656-3.672-3.672-3.672c-2.017,0-3.672,1.584-3.672,3.672v19.082
		c0,2.017,1.656,3.672,3.672,3.672c2.016,0,3.672-1.655,3.672-3.672v-7.416h-2.52c-0.648,0-1.152-0.504-1.152-1.08v-2.305
		c0-0.648,0.504-1.152,1.152-1.152h5.977c0.648,0,1.152,0.504,1.152,1.152v10.801c0,4.537-3.744,8.209-8.28,8.209
		c-4.537,0-8.281-3.672-8.281-8.209V42.885c0-4.608,3.744-8.281,8.281-8.281c4.536,0,8.28,3.672,8.28,8.281v2.448
		c0,0.648-0.504,1.152-1.152,1.152h-2.304C132.491,46.486,131.987,45.981,131.987,45.333z"/>
	<path d="M159.203,42.885v26.138c0,0.648-0.504,1.152-1.152,1.152h-2.304c-0.648,0-1.152-0.504-1.152-1.152V54.694h-7.417v14.329
		c0,0.648-0.504,1.152-1.152,1.152h-2.304c-0.648,0-1.152-0.504-1.152-1.152V42.885c0-4.536,3.744-8.281,8.353-8.281
		C155.458,34.604,159.203,38.349,159.203,42.885z M154.594,42.885c0-2.016-1.656-3.672-3.672-3.672
		c-2.088,0-3.744,1.656-3.744,3.672v7.201h7.417V42.885z"/>
	<path d="M181.378,46.27c0,2.376-0.936,4.537-2.52,6.049c1.584,1.512,2.52,3.6,2.52,5.977v10.729c0,0.576-0.504,1.152-1.152,1.152
		h-2.304c-0.648,0-1.152-0.576-1.152-1.152V58.295c0-2.016-1.656-3.672-3.672-3.672h-3.672v14.4c0,0.576-0.576,1.152-1.152,1.152
		h-2.304c-0.648,0-1.152-0.576-1.152-1.152V36.837c0-1.296,1.008-2.304,2.304-2.304h5.977c4.608,0,8.281,3.744,8.281,8.281V46.27z
		 M176.77,42.813c0-2.016-1.656-3.672-3.672-3.672h-3.672v10.873h3.672c2.016,0,3.672-1.656,3.672-3.745V42.813z"/>
	<path d="M203.986,42.885v18.938c0,4.608-3.672,8.353-8.281,8.353h-6.048c-1.224,0-2.304-1.08-2.304-2.305V36.837
		c0-1.296,1.08-2.304,2.304-2.304h6.048C200.314,34.533,203.986,38.277,203.986,42.885z M199.378,42.885
		c0-2.088-1.656-3.744-3.672-3.744h-3.744v26.355h3.744c2.016,0,3.672-1.656,3.672-3.673V42.885z"/>
	<path d="M214.568,39.141v10.873h6.265c0.648,0,1.152,0.504,1.152,1.152v2.305c0,0.647-0.504,1.152-1.152,1.152h-6.265v10.944h6.265
		c0.648,0,1.152,0.504,1.152,1.152v2.304c0,0.648-0.504,1.152-1.152,1.152h-8.568c-1.296,0-2.304-1.08-2.304-2.305V36.837
		c0-1.296,1.008-2.304,2.304-2.304h8.568c0.648,0,1.152,0.504,1.152,1.152v2.304c0,0.648-0.504,1.152-1.152,1.152H214.568z"/>
	<path d="M244.594,42.813v26.21c0,0.576-0.504,1.152-1.152,1.152h-2.305c-0.647,0-1.151-0.576-1.151-1.152v-26.21
		c0-2.016-1.656-3.672-3.673-3.672c-2.088,0-3.744,1.656-3.744,3.672v26.21c0,0.576-0.504,1.152-1.152,1.152h-2.304
		c-0.647,0-1.151-0.576-1.151-1.152v-26.21c0-4.537,3.744-8.281,8.352-8.281C240.85,34.533,244.594,38.277,244.594,42.813z"/>
	<path d="M277.569,42.813v19.01c0,4.608-3.745,8.353-8.28,8.353c-4.609,0-8.354-3.744-8.354-8.353v-19.01
		c0-4.537,3.744-8.281,8.354-8.281C273.824,34.533,277.569,38.277,277.569,42.813z M272.961,42.813c0-2.016-1.656-3.672-3.672-3.672
		c-2.089,0-3.744,1.656-3.744,3.672v19.01c0,2.088,1.655,3.744,3.744,3.744c2.016,0,3.672-1.656,3.672-3.744V42.813z"/>
	<path d="M288.152,39.141v10.873h6.264c0.648,0,1.152,0.504,1.152,1.152v2.305c0,0.647-0.504,1.152-1.152,1.152h-6.264v14.4
		c0,0.648-0.504,1.152-1.152,1.152h-2.305c-0.647,0-1.151-0.504-1.151-1.152V36.837c0-1.296,1.008-2.304,2.304-2.304h8.568
		c0.648,0,1.152,0.504,1.152,1.152v2.304c0,0.648-0.504,1.152-1.152,1.152H288.152z"/>
	<path d="M323.864,45.262v-2.448c0-2.016-1.655-3.672-3.673-3.672c-2.016,0-3.672,1.656-3.672,3.672v19.081
		c0,2.017,1.656,3.673,3.672,3.673c2.018,0,3.673-1.656,3.673-3.673V59.23c0-0.647,0.505-1.152,1.152-1.152h2.304
		c0.648,0,1.152,0.505,1.152,1.152v2.664c0,4.537-3.744,8.281-8.281,8.281c-4.607,0-8.279-3.744-8.279-8.281V42.813
		c0-4.537,3.672-8.281,8.279-8.281c4.537,0,8.281,3.744,8.281,8.281v2.448c0,0.648-0.504,1.152-1.152,1.152h-2.304
		C324.369,46.414,323.864,45.91,323.864,45.262z"/>
	<path d="M350.359,42.813v19.01c0,4.608-3.744,8.353-8.279,8.353c-4.609,0-8.354-3.744-8.354-8.353v-19.01
		c0-4.537,3.744-8.281,8.354-8.281C346.615,34.533,350.359,38.277,350.359,42.813z M345.752,42.813c0-2.016-1.656-3.672-3.672-3.672
		c-2.089,0-3.744,1.656-3.744,3.672v19.01c0,2.088,1.655,3.744,3.744,3.744c2.016,0,3.672-1.656,3.672-3.744V42.813z"/>
	<path d="M372.969,42.885v18.938c0,4.608-3.674,8.353-8.281,8.353h-6.049c-1.225,0-2.305-1.08-2.305-2.305V36.837
		c0-1.296,1.08-2.304,2.305-2.304h6.049C369.295,34.533,372.969,38.277,372.969,42.885z M368.359,42.885
		c0-2.088-1.656-3.744-3.672-3.744h-3.744v26.355h3.744c2.016,0,3.672-1.656,3.672-3.673V42.885z"/>
	<path d="M383.551,39.141v10.873h6.264c0.648,0,1.152,0.504,1.152,1.152v2.305c0,0.647-0.504,1.152-1.152,1.152h-6.264v10.944h6.264
		c0.648,0,1.152,0.504,1.152,1.152v2.304c0,0.648-0.504,1.152-1.152,1.152h-8.568c-1.295,0-2.305-1.08-2.305-2.305V36.837
		c0-1.296,1.01-2.304,2.305-2.304h8.568c0.648,0,1.152,0.504,1.152,1.152v2.304c0,0.648-0.504,1.152-1.152,1.152H383.551z"/>
</g>
<g>
	<path d="M85.303,67.968c-0.543-0.305-0.982-0.626-1.321-0.965c-0.339-0.406-0.677-0.863-1.016-1.371
		c-0.339-0.508-0.406-0.863-0.203-1.066l10.868-10.868c0.609-0.609,0.609-1.219,0-1.828l-5.586-5.586
		c-1.559-1.557-3.285-3.317-5.18-5.282c-0.271-0.27-0.289-0.609-0.051-1.016c0.237-0.406,0.625-0.879,1.168-1.422
		c0.542-0.473,1.032-0.846,1.473-1.117c0.439-0.27,0.762-0.305,0.965-0.102l11.985,12.086c1.15,1.152,1.709,2.27,1.676,3.352
		c-0.035,1.084-0.593,2.201-1.676,3.352L86.42,68.12C86.217,68.323,85.844,68.272,85.303,67.968z"/>
</g>
<g>
	<path d="M18.501,37.344c0.203-0.203,0.559-0.152,1.066,0.152s0.965,0.66,1.371,1.066c0.338,0.339,0.676,0.762,1.016,1.27
		c0.338,0.508,0.406,0.863,0.203,1.066L11.29,51.767c-0.678,0.678-0.678,1.32,0,1.93l10.766,10.767c0.27,0.271,0.27,0.609,0,1.016
		c-0.271,0.406-0.644,0.881-1.117,1.422c-0.542,0.543-1.033,0.932-1.473,1.168c-0.441,0.238-0.762,0.254-0.965,0.051L6.516,56.135
		c-2.235-2.302-2.235-4.571,0-6.806c0.135-0.135,0.828-0.812,2.082-2.031c1.252-1.219,2.623-2.573,4.113-4.063
		C14.472,41.475,16.401,39.512,18.501,37.344z"/>
</g>
<g>
	<g>
		<path fill="#FDB841" d="M77.943,78.637l-25.58-25.582l5.215-5.21l25.579,25.58c1.438,1.439,1.438,3.772,0,5.213
			C81.718,80.076,79.384,80.076,77.943,78.637"/>
		<path fill="#FFCF7E" d="M57.381,46.21c0.743,0.746,0.743,1.95,0,2.693l-3.959,3.959c-0.744,0.739-1.945,0.739-2.688,0
			c-0.743-0.743-0.743-1.948,0-2.69l3.958-3.962C55.434,45.471,56.64,45.471,57.381,46.21"/>
		<path fill="#4E4E4E" d="M40.255,31.775l5.623-5.626c1.521-1.518-0.424-5.157-9.386-10.904c-8.963-5.752-19.269-2.544-19.269-2.544
			s-3.206,10.308,2.541,19.272c5.751,8.962,9.386,10.903,10.909,9.382l5.625-5.622l14.438,14.438l3.958-3.962L40.255,31.775z"/>
	</g>
	<g>
		<path fill="#FDB841" d="M25.522,78.754l22.812-22.81l-4.649-4.65l-22.81,22.809c-1.283,1.287-1.283,3.366,0,4.65
			C22.159,80.039,24.24,80.039,25.522,78.754"/>
		<path fill="#FFCF7E" d="M43.858,49.843c-0.661,0.661-0.661,1.734,0,2.398l3.53,3.531c0.664,0.661,1.736,0.661,2.396,0
			c0.665-0.664,0.665-1.738,0-2.398l-3.527-3.53C45.594,49.179,44.52,49.179,43.858,49.843"/>
		<path fill="#4E4E4E" d="M61.701,34.31c21.993-19.985,22.943-24.66,22.943-24.66s-4.674,0.951-24.658,22.945
			c-0.541,0.595-1.468,0.618-2.037,0.051l-1.634-1.637c-0.57-0.566-0.544-1.496,0.051-2.038C78.357,8.989,79.31,4.314,79.31,4.314
			s-4.831,0.982-25.651,24.039l-0.433,0.432c-0.627,0.629-0.627,1.649,0,2.277l5.906,5.906L46.255,49.843l3.53,3.53l12.877-12.877
			l5.904,5.908c0.63,0.625,1.646,0.625,2.276-0.002l0.43-0.432c23.06-20.82,24.043-25.651,24.043-25.651s-4.674,0.954-24.658,22.946
			c-0.54,0.595-1.469,0.618-2.039,0.051l-1.632-1.634c-0.569-0.569-0.548-1.5,0.05-2.04C89.028,19.66,89.981,14.986,89.981,14.986
			s-4.677,0.951-24.658,22.943c-0.54,0.596-1.473,0.619-2.04,0.05l-1.635-1.63C61.081,35.777,61.106,34.849,61.701,34.31"/>
	</g>
</g>
</svg>
