<?xml version="1.0" encoding="utf-8"?>
<!-- Generator: Adobe Illustrator 15.0.2, SVG Export Plug-In . SVG Version: 6.00 Build 0)  -->
<!DOCTYPE svg PUBLIC "-//W3C//DTD SVG 1.1//EN" "http://www.w3.org/Graphics/SVG/1.1/DTD/svg11.dtd">
<svg version="1.1" id="Layer_1" xmlns="http://www.w3.org/2000/svg" xmlns:xlink="http://www.w3.org/1999/xlink" x="0px" y="0px"
	 width="425.57px" height="102.482px" viewBox="0 0 425.57 102.482" enable-background="new 0 0 425.57 102.482"
	 xml:space="preserve">
<text transform="matrix(1 0 0 1 111.9058 62.0884)" font-family="'Champagne&Limousines-Bold'" font-size="48">garden of code</text>
<g>
	<text transform="matrix(1 0 0 1 78.8887 86.3325)" font-family="'ArvilSans'" font-size="101.5679">&gt;</text>
	<text transform="matrix(1 0 0 1 0 86.3325)" font-family="'ArvilSans'" font-size="101.5679">&lt;</text>
	<g>
		<g>
			<path fill="#FDB841" d="M76.201,77.551l-25.58-25.58l5.215-5.211l25.579,25.578c1.438,1.441,1.438,3.773,0,5.213
				C79.976,78.991,77.642,78.991,76.201,77.551"/>
			<path fill="#FFCF7E" d="M55.639,45.125c0.743,0.746,0.743,1.949,0,2.693l-3.959,3.959c-0.744,0.738-1.945,0.738-2.688,0
				c-0.743-0.744-0.743-1.947,0-2.691l3.958-3.961C53.692,44.385,54.897,44.385,55.639,45.125"/>
			<path fill="#4E4E4E" d="M38.513,30.69l5.623-5.625c1.521-1.52-0.424-5.158-9.386-10.904c-8.963-5.752-19.269-2.545-19.269-2.545
				s-3.206,10.309,2.541,19.273c5.751,8.961,9.386,10.902,10.909,9.381l5.625-5.621l14.438,14.438l3.958-3.961L38.513,30.69z"/>
		</g>
		<g>
			<path fill="#FDB841" d="M23.78,77.668L46.592,54.86l-4.649-4.65L19.132,73.02c-1.283,1.285-1.283,3.365,0,4.648
				C20.417,78.954,22.498,78.954,23.78,77.668"/>
			<path fill="#FFCF7E" d="M42.116,48.758c-0.661,0.66-0.661,1.734,0,2.398l3.53,3.529c0.664,0.662,1.736,0.662,2.396,0
				c0.665-0.662,0.665-1.736,0-2.398l-3.527-3.529C43.852,48.094,42.777,48.094,42.116,48.758"/>
			<path fill="#4E4E4E" d="M59.959,33.225C81.952,13.24,82.902,8.565,82.902,8.565S78.228,9.516,58.244,31.51
				c-0.541,0.594-1.468,0.617-2.037,0.051l-1.634-1.637c-0.57-0.566-0.544-1.496,0.051-2.039
				C76.615,7.905,77.568,3.229,77.568,3.229s-4.831,0.982-25.651,24.039L51.484,27.7c-0.627,0.631-0.627,1.65,0,2.277l5.906,5.906
				L44.513,48.758l3.53,3.529L60.92,39.411l5.904,5.908c0.63,0.627,1.646,0.627,2.276-0.002l0.43-0.432
				c23.06-20.82,24.043-25.65,24.043-25.65s-4.674,0.953-24.658,22.945c-0.54,0.594-1.469,0.617-2.039,0.051l-1.632-1.635
				c-0.569-0.568-0.548-1.5,0.05-2.039c21.992-19.982,22.944-24.656,22.944-24.656s-4.677,0.951-24.658,22.943
				c-0.54,0.596-1.473,0.619-2.04,0.049l-1.635-1.629C59.338,34.692,59.364,33.764,59.959,33.225"/>
		</g>
	</g>
</g>
</svg>
